<svg width="23" height="23" viewBox="0 0 23 23" fill="none" xmlns="http://www.w3.org/2000/svg">
<path d="M20.6115 8.41964C20.5539 8.24983 20.4478 8.10061 20.3063 7.99043C20.1648 7.88024 19.9941 7.81389 19.8154 7.79959L14.5862 7.38408L12.3234 2.37506C12.2513 2.21373 12.1341 2.07671 11.9859 1.98052C11.8377 1.88434 11.6648 1.8331 11.4881 1.83301C11.3114 1.83291 11.1385 1.88395 10.9901 1.97998C10.8418 2.076 10.7244 2.2129 10.6522 2.37415L8.38938 7.38408L3.16023 7.79959C2.98454 7.8135 2.81657 7.87774 2.67644 7.98462C2.5363 8.0915 2.42992 8.23648 2.37002 8.40224C2.31013 8.56799 2.29925 8.74749 2.3387 8.91926C2.37815 9.09103 2.46625 9.2478 2.59246 9.37081L6.45677 13.1379L5.09009 19.0559C5.04859 19.235 5.06189 19.4225 5.12826 19.594C5.19463 19.7655 5.31102 19.913 5.4623 20.0175C5.61359 20.1221 5.7928 20.1787 5.97667 20.1801C6.16054 20.1815 6.34059 20.1276 6.49345 20.0254L11.4878 16.6958L16.4821 20.0254C16.6384 20.1291 16.8226 20.1825 17.0101 20.1784C17.1976 20.1743 17.3794 20.1129 17.5309 20.0024C17.6824 19.8919 17.7965 19.7377 17.8578 19.5604C17.919 19.3832 17.9246 19.1914 17.8736 19.0109L16.196 13.1406L20.3565 9.39649C20.629 9.15067 20.7289 8.76727 20.6115 8.41964Z" fill="#F3CD03"/>
</svg>
